%TF.GenerationSoftware,KiCad,Pcbnew,(5.1.6)-1*%
%TF.CreationDate,2020-11-11T17:13:27-05:00*%
%TF.ProjectId,P2B-DS_FSB,5032422d-4453-45f4-9653-422e6b696361,rev?*%
%TF.SameCoordinates,Original*%
%TF.FileFunction,Copper,L1,Top*%
%TF.FilePolarity,Positive*%
%FSLAX46Y46*%
G04 Gerber Fmt 4.6, Leading zero omitted, Abs format (unit mm)*
G04 Created by KiCad (PCBNEW (5.1.6)-1) date 2020-11-11 17:13:27*
%MOMM*%
%LPD*%
G01*
G04 APERTURE LIST*
%TA.AperFunction,ComponentPad*%
%ADD10R,1.700000X1.700000*%
%TD*%
%TA.AperFunction,ComponentPad*%
%ADD11O,1.700000X1.700000*%
%TD*%
%TA.AperFunction,Conductor*%
%ADD12C,0.400000*%
%TD*%
G04 APERTURE END LIST*
D10*
%TO.P,FS0,1*%
%TO.N,Net-(FS0'1-Pad1)*%
X152654000Y-96012000D03*
D11*
%TO.P,FS0,2*%
%TO.N,Net-(FS0'1-Pad2)*%
X152654000Y-98552000D03*
%TO.P,FS0,3*%
%TO.N,Net-(FS0'1-Pad3)*%
X152654000Y-101092000D03*
%TD*%
%TO.P,FS1,3*%
%TO.N,Net-(FS0'1-Pad3)*%
X155194000Y-101092000D03*
%TO.P,FS1,2*%
%TO.N,Net-(FS1'1-Pad2)*%
X155194000Y-98552000D03*
D10*
%TO.P,FS1,1*%
%TO.N,Net-(FS0'1-Pad1)*%
X155194000Y-96012000D03*
%TD*%
%TO.P,FS2,1*%
%TO.N,Net-(FS0'1-Pad1)*%
X157734000Y-96012000D03*
D11*
%TO.P,FS2,2*%
%TO.N,Net-(FS2'1-Pad2)*%
X157734000Y-98552000D03*
%TO.P,FS2,3*%
%TO.N,Net-(FS0'1-Pad3)*%
X157734000Y-101092000D03*
%TD*%
%TO.P,FS0,3*%
%TO.N,Net-(FS0'1-Pad3)*%
X148590000Y-104140000D03*
%TO.P,FS0,2*%
%TO.N,Net-(FS0'1-Pad2)*%
X148590000Y-101600000D03*
D10*
%TO.P,FS0,1*%
%TO.N,Net-(FS0'1-Pad1)*%
X148590000Y-99060000D03*
%TD*%
%TO.P,FS1,1*%
%TO.N,Net-(FS0'1-Pad1)*%
X146050000Y-99060000D03*
D11*
%TO.P,FS1,2*%
%TO.N,Net-(FS1'1-Pad2)*%
X146050000Y-101600000D03*
%TO.P,FS1,3*%
%TO.N,Net-(FS0'1-Pad3)*%
X146050000Y-104140000D03*
%TD*%
%TO.P,FS2,3*%
%TO.N,Net-(FS0'1-Pad3)*%
X143510000Y-104140000D03*
%TO.P,FS2,2*%
%TO.N,Net-(FS2'1-Pad2)*%
X143510000Y-101600000D03*
D10*
%TO.P,FS2,1*%
%TO.N,Net-(FS0'1-Pad1)*%
X143510000Y-99060000D03*
%TD*%
%TO.P,FS3,1*%
%TO.N,Net-(FS0'1-Pad1)*%
X140970000Y-99060000D03*
D11*
%TO.P,FS3,2*%
%TO.N,Net-(FS3'1-Pad2)*%
X140970000Y-101600000D03*
%TO.P,FS3,3*%
%TO.N,Net-(FS0'1-Pad3)*%
X140970000Y-104140000D03*
%TD*%
%TO.P,R1,1*%
%TO.N,Net-(R1-Pad1)*%
%TA.AperFunction,SMDPad,CuDef*%
G36*
G01*
X136155000Y-101837500D02*
X136155000Y-101362500D01*
G75*
G02*
X136392500Y-101125000I237500J0D01*
G01*
X136967500Y-101125000D01*
G75*
G02*
X137205000Y-101362500I0J-237500D01*
G01*
X137205000Y-101837500D01*
G75*
G02*
X136967500Y-102075000I-237500J0D01*
G01*
X136392500Y-102075000D01*
G75*
G02*
X136155000Y-101837500I0J237500D01*
G01*
G37*
%TD.AperFunction*%
%TO.P,R1,2*%
%TO.N,Net-(FS3'1-Pad2)*%
%TA.AperFunction,SMDPad,CuDef*%
G36*
G01*
X137905000Y-101837500D02*
X137905000Y-101362500D01*
G75*
G02*
X138142500Y-101125000I237500J0D01*
G01*
X138717500Y-101125000D01*
G75*
G02*
X138955000Y-101362500I0J-237500D01*
G01*
X138955000Y-101837500D01*
G75*
G02*
X138717500Y-102075000I-237500J0D01*
G01*
X138142500Y-102075000D01*
G75*
G02*
X137905000Y-101837500I0J237500D01*
G01*
G37*
%TD.AperFunction*%
%TD*%
D10*
%TO.P,R99,1*%
%TO.N,Net-(R1-Pad1)*%
X137160000Y-97790000D03*
%TD*%
D12*
%TO.N,Net-(FS0'1-Pad1)*%
X140970000Y-99060000D02*
X143510000Y-99060000D01*
X143510000Y-99060000D02*
X146050000Y-99060000D01*
X146050000Y-99060000D02*
X148590000Y-99060000D01*
X157734000Y-96012000D02*
X155194000Y-96012000D01*
X155194000Y-96012000D02*
X152654000Y-96012000D01*
X151638000Y-96012000D02*
X148590000Y-99060000D01*
X152654000Y-96012000D02*
X151638000Y-96012000D01*
%TO.N,Net-(FS0'1-Pad2)*%
X152654000Y-98552000D02*
X151638000Y-98552000D01*
X151638000Y-98552000D02*
X148590000Y-101600000D01*
%TO.N,Net-(FS0'1-Pad3)*%
X140970000Y-104140000D02*
X143510000Y-104140000D01*
X143510000Y-104140000D02*
X146050000Y-104140000D01*
X146050000Y-104140000D02*
X148590000Y-104140000D01*
X148590000Y-104140000D02*
X149606000Y-104140000D01*
X149606000Y-104140000D02*
X152654000Y-101092000D01*
X152654000Y-101092000D02*
X155194000Y-101092000D01*
X155194000Y-101092000D02*
X157734000Y-101092000D01*
%TO.N,Net-(FS1'1-Pad2)*%
X147300001Y-102850001D02*
X149371999Y-102850001D01*
X146050000Y-101600000D02*
X147300001Y-102850001D01*
X150114000Y-102108000D02*
X149371999Y-102850001D01*
X150114000Y-102108000D02*
X150114000Y-101346000D01*
X153904001Y-99841999D02*
X155194000Y-98552000D01*
X151618001Y-99841999D02*
X153904001Y-99841999D01*
X150114000Y-101346000D02*
X151618001Y-99841999D01*
%TO.N,Net-(FS3'1-Pad2)*%
X138430000Y-101600000D02*
X140970000Y-101600000D01*
%TO.N,Net-(R1-Pad1)*%
X136680000Y-101600000D02*
X136680000Y-100048000D01*
X137160000Y-99568000D02*
X137160000Y-97790000D01*
X136680000Y-100048000D02*
X137160000Y-99568000D01*
%TD*%
M02*
