%TF.GenerationSoftware,KiCad,Pcbnew,(5.1.6)-1*%
%TF.CreationDate,2020-11-11T17:13:27-05:00*%
%TF.ProjectId,P2B-DS_FSB,5032422d-4453-45f4-9653-422e6b696361,rev?*%
%TF.SameCoordinates,Original*%
%TF.FileFunction,Legend,Bot*%
%TF.FilePolarity,Positive*%
%FSLAX46Y46*%
G04 Gerber Fmt 4.6, Leading zero omitted, Abs format (unit mm)*
G04 Created by KiCad (PCBNEW (5.1.6)-1) date 2020-11-11 17:13:27*
%MOMM*%
%LPD*%
G01*
G04 APERTURE LIST*
%ADD10C,0.150000*%
%ADD11C,0.120000*%
G04 APERTURE END LIST*
D10*
X149613333Y-95543714D02*
X149422857Y-96210380D01*
X149232380Y-95734190D01*
X149041904Y-96210380D01*
X148851428Y-95543714D01*
X148470476Y-96210380D02*
X148470476Y-95543714D01*
X148470476Y-95210380D02*
X148518095Y-95258000D01*
X148470476Y-95305619D01*
X148422857Y-95258000D01*
X148470476Y-95210380D01*
X148470476Y-95305619D01*
X147994285Y-96210380D02*
X147994285Y-95543714D01*
X147994285Y-95734190D02*
X147946666Y-95638952D01*
X147899047Y-95591333D01*
X147803809Y-95543714D01*
X147708571Y-95543714D01*
X146994285Y-96162761D02*
X147089523Y-96210380D01*
X147280000Y-96210380D01*
X147375238Y-96162761D01*
X147422857Y-96067523D01*
X147422857Y-95686571D01*
X147375238Y-95591333D01*
X147280000Y-95543714D01*
X147089523Y-95543714D01*
X146994285Y-95591333D01*
X146946666Y-95686571D01*
X146946666Y-95781809D01*
X147422857Y-95877047D01*
X146660952Y-95543714D02*
X146280000Y-95543714D01*
X146518095Y-95210380D02*
X146518095Y-96067523D01*
X146470476Y-96162761D01*
X146375238Y-96210380D01*
X146280000Y-96210380D01*
X145518095Y-96210380D02*
X145518095Y-95686571D01*
X145565714Y-95591333D01*
X145660952Y-95543714D01*
X145851428Y-95543714D01*
X145946666Y-95591333D01*
X145518095Y-96162761D02*
X145613333Y-96210380D01*
X145851428Y-96210380D01*
X145946666Y-96162761D01*
X145994285Y-96067523D01*
X145994285Y-95972285D01*
X145946666Y-95877047D01*
X145851428Y-95829428D01*
X145613333Y-95829428D01*
X145518095Y-95781809D01*
X145041904Y-95543714D02*
X145041904Y-96543714D01*
X145041904Y-95591333D02*
X144946666Y-95543714D01*
X144756190Y-95543714D01*
X144660952Y-95591333D01*
X144613333Y-95638952D01*
X144565714Y-95734190D01*
X144565714Y-96019904D01*
X144613333Y-96115142D01*
X144660952Y-96162761D01*
X144756190Y-96210380D01*
X144946666Y-96210380D01*
X145041904Y-96162761D01*
X143422857Y-95305619D02*
X143375238Y-95258000D01*
X143280000Y-95210380D01*
X143041904Y-95210380D01*
X142946666Y-95258000D01*
X142899047Y-95305619D01*
X142851428Y-95400857D01*
X142851428Y-95496095D01*
X142899047Y-95638952D01*
X143470476Y-96210380D01*
X142851428Y-96210380D01*
X142232380Y-95210380D02*
X142137142Y-95210380D01*
X142041904Y-95258000D01*
X141994285Y-95305619D01*
X141946666Y-95400857D01*
X141899047Y-95591333D01*
X141899047Y-95829428D01*
X141946666Y-96019904D01*
X141994285Y-96115142D01*
X142041904Y-96162761D01*
X142137142Y-96210380D01*
X142232380Y-96210380D01*
X142327619Y-96162761D01*
X142375238Y-96115142D01*
X142422857Y-96019904D01*
X142470476Y-95829428D01*
X142470476Y-95591333D01*
X142422857Y-95400857D01*
X142375238Y-95305619D01*
X142327619Y-95258000D01*
X142232380Y-95210380D01*
X141518095Y-95305619D02*
X141470476Y-95258000D01*
X141375238Y-95210380D01*
X141137142Y-95210380D01*
X141041904Y-95258000D01*
X140994285Y-95305619D01*
X140946666Y-95400857D01*
X140946666Y-95496095D01*
X140994285Y-95638952D01*
X141565714Y-96210380D01*
X140946666Y-96210380D01*
X140327619Y-95210380D02*
X140232380Y-95210380D01*
X140137142Y-95258000D01*
X140089523Y-95305619D01*
X140041904Y-95400857D01*
X139994285Y-95591333D01*
X139994285Y-95829428D01*
X140041904Y-96019904D01*
X140089523Y-96115142D01*
X140137142Y-96162761D01*
X140232380Y-96210380D01*
X140327619Y-96210380D01*
X140422857Y-96162761D01*
X140470476Y-96115142D01*
X140518095Y-96019904D01*
X140565714Y-95829428D01*
X140565714Y-95591333D01*
X140518095Y-95400857D01*
X140470476Y-95305619D01*
X140422857Y-95258000D01*
X140327619Y-95210380D01*
D11*
%TO.C,FS0*%
X153984000Y-97282000D02*
X151324000Y-97282000D01*
X153984000Y-97282000D02*
X153984000Y-102422000D01*
X153984000Y-102422000D02*
X151324000Y-102422000D01*
X151324000Y-97282000D02*
X151324000Y-102422000D01*
X151324000Y-94682000D02*
X151324000Y-96012000D01*
X152654000Y-94682000D02*
X151324000Y-94682000D01*
%TO.C,FS1*%
X155194000Y-94682000D02*
X153864000Y-94682000D01*
X153864000Y-94682000D02*
X153864000Y-96012000D01*
X153864000Y-97282000D02*
X153864000Y-102422000D01*
X156524000Y-102422000D02*
X153864000Y-102422000D01*
X156524000Y-97282000D02*
X156524000Y-102422000D01*
X156524000Y-97282000D02*
X153864000Y-97282000D01*
%TO.C,FS2*%
X159064000Y-97282000D02*
X156404000Y-97282000D01*
X159064000Y-97282000D02*
X159064000Y-102422000D01*
X159064000Y-102422000D02*
X156404000Y-102422000D01*
X156404000Y-97282000D02*
X156404000Y-102422000D01*
X156404000Y-94682000D02*
X156404000Y-96012000D01*
X157734000Y-94682000D02*
X156404000Y-94682000D01*
%TO.C,FS0*%
D10*
X152582571Y-103182476D02*
X152582571Y-102849142D01*
X153106380Y-102849142D02*
X152106380Y-102849142D01*
X152106380Y-103325333D01*
X153058761Y-103658666D02*
X153106380Y-103801523D01*
X153106380Y-104039619D01*
X153058761Y-104134857D01*
X153011142Y-104182476D01*
X152915904Y-104230095D01*
X152820666Y-104230095D01*
X152725428Y-104182476D01*
X152677809Y-104134857D01*
X152630190Y-104039619D01*
X152582571Y-103849142D01*
X152534952Y-103753904D01*
X152487333Y-103706285D01*
X152392095Y-103658666D01*
X152296857Y-103658666D01*
X152201619Y-103706285D01*
X152154000Y-103753904D01*
X152106380Y-103849142D01*
X152106380Y-104087238D01*
X152154000Y-104230095D01*
X152106380Y-104849142D02*
X152106380Y-104944380D01*
X152154000Y-105039619D01*
X152201619Y-105087238D01*
X152296857Y-105134857D01*
X152487333Y-105182476D01*
X152725428Y-105182476D01*
X152915904Y-105134857D01*
X153011142Y-105087238D01*
X153058761Y-105039619D01*
X153106380Y-104944380D01*
X153106380Y-104849142D01*
X153058761Y-104753904D01*
X153011142Y-104706285D01*
X152915904Y-104658666D01*
X152725428Y-104611047D01*
X152487333Y-104611047D01*
X152296857Y-104658666D01*
X152201619Y-104706285D01*
X152154000Y-104753904D01*
X152106380Y-104849142D01*
%TO.C,FS1*%
X155062571Y-103182476D02*
X155062571Y-102849142D01*
X155586380Y-102849142D02*
X154586380Y-102849142D01*
X154586380Y-103325333D01*
X155538761Y-103658666D02*
X155586380Y-103801523D01*
X155586380Y-104039619D01*
X155538761Y-104134857D01*
X155491142Y-104182476D01*
X155395904Y-104230095D01*
X155300666Y-104230095D01*
X155205428Y-104182476D01*
X155157809Y-104134857D01*
X155110190Y-104039619D01*
X155062571Y-103849142D01*
X155014952Y-103753904D01*
X154967333Y-103706285D01*
X154872095Y-103658666D01*
X154776857Y-103658666D01*
X154681619Y-103706285D01*
X154634000Y-103753904D01*
X154586380Y-103849142D01*
X154586380Y-104087238D01*
X154634000Y-104230095D01*
X155586380Y-105182476D02*
X155586380Y-104611047D01*
X155586380Y-104896761D02*
X154586380Y-104896761D01*
X154729238Y-104801523D01*
X154824476Y-104706285D01*
X154872095Y-104611047D01*
%TO.C,FS2*%
X157662571Y-103182476D02*
X157662571Y-102849142D01*
X158186380Y-102849142D02*
X157186380Y-102849142D01*
X157186380Y-103325333D01*
X158138761Y-103658666D02*
X158186380Y-103801523D01*
X158186380Y-104039619D01*
X158138761Y-104134857D01*
X158091142Y-104182476D01*
X157995904Y-104230095D01*
X157900666Y-104230095D01*
X157805428Y-104182476D01*
X157757809Y-104134857D01*
X157710190Y-104039619D01*
X157662571Y-103849142D01*
X157614952Y-103753904D01*
X157567333Y-103706285D01*
X157472095Y-103658666D01*
X157376857Y-103658666D01*
X157281619Y-103706285D01*
X157234000Y-103753904D01*
X157186380Y-103849142D01*
X157186380Y-104087238D01*
X157234000Y-104230095D01*
X157281619Y-104611047D02*
X157234000Y-104658666D01*
X157186380Y-104753904D01*
X157186380Y-104992000D01*
X157234000Y-105087238D01*
X157281619Y-105134857D01*
X157376857Y-105182476D01*
X157472095Y-105182476D01*
X157614952Y-105134857D01*
X158186380Y-104563428D01*
X158186380Y-105182476D01*
%TD*%
M02*
