%TF.GenerationSoftware,KiCad,Pcbnew,(5.1.6)-1*%
%TF.CreationDate,2020-11-11T17:13:27-05:00*%
%TF.ProjectId,P2B-DS_FSB,5032422d-4453-45f4-9653-422e6b696361,rev?*%
%TF.SameCoordinates,Original*%
%TF.FileFunction,Legend,Top*%
%TF.FilePolarity,Positive*%
%FSLAX46Y46*%
G04 Gerber Fmt 4.6, Leading zero omitted, Abs format (unit mm)*
G04 Created by KiCad (PCBNEW (5.1.6)-1) date 2020-11-11 17:13:27*
%MOMM*%
%LPD*%
G01*
G04 APERTURE LIST*
%ADD10C,0.150000*%
%ADD11C,0.120000*%
G04 APERTURE END LIST*
D10*
X151852666Y-103767380D02*
X151852666Y-102767380D01*
X152233619Y-102767380D01*
X152328857Y-102815000D01*
X152376476Y-102862619D01*
X152424095Y-102957857D01*
X152424095Y-103100714D01*
X152376476Y-103195952D01*
X152328857Y-103243571D01*
X152233619Y-103291190D01*
X151852666Y-103291190D01*
X152805047Y-102862619D02*
X152852666Y-102815000D01*
X152947904Y-102767380D01*
X153186000Y-102767380D01*
X153281238Y-102815000D01*
X153328857Y-102862619D01*
X153376476Y-102957857D01*
X153376476Y-103053095D01*
X153328857Y-103195952D01*
X152757428Y-103767380D01*
X153376476Y-103767380D01*
X154138380Y-103243571D02*
X154281238Y-103291190D01*
X154328857Y-103338809D01*
X154376476Y-103434047D01*
X154376476Y-103576904D01*
X154328857Y-103672142D01*
X154281238Y-103719761D01*
X154186000Y-103767380D01*
X153805047Y-103767380D01*
X153805047Y-102767380D01*
X154138380Y-102767380D01*
X154233619Y-102815000D01*
X154281238Y-102862619D01*
X154328857Y-102957857D01*
X154328857Y-103053095D01*
X154281238Y-103148333D01*
X154233619Y-103195952D01*
X154138380Y-103243571D01*
X153805047Y-103243571D01*
X154805047Y-103386428D02*
X155566952Y-103386428D01*
X156043142Y-103767380D02*
X156043142Y-102767380D01*
X156281238Y-102767380D01*
X156424095Y-102815000D01*
X156519333Y-102910238D01*
X156566952Y-103005476D01*
X156614571Y-103195952D01*
X156614571Y-103338809D01*
X156566952Y-103529285D01*
X156519333Y-103624523D01*
X156424095Y-103719761D01*
X156281238Y-103767380D01*
X156043142Y-103767380D01*
X156995523Y-103719761D02*
X157138380Y-103767380D01*
X157376476Y-103767380D01*
X157471714Y-103719761D01*
X157519333Y-103672142D01*
X157566952Y-103576904D01*
X157566952Y-103481666D01*
X157519333Y-103386428D01*
X157471714Y-103338809D01*
X157376476Y-103291190D01*
X157186000Y-103243571D01*
X157090761Y-103195952D01*
X157043142Y-103148333D01*
X156995523Y-103053095D01*
X156995523Y-102957857D01*
X157043142Y-102862619D01*
X157090761Y-102815000D01*
X157186000Y-102767380D01*
X157424095Y-102767380D01*
X157566952Y-102815000D01*
X150757428Y-104893571D02*
X150424095Y-104893571D01*
X150424095Y-105417380D02*
X150424095Y-104417380D01*
X150900285Y-104417380D01*
X151233619Y-105369761D02*
X151376476Y-105417380D01*
X151614571Y-105417380D01*
X151709809Y-105369761D01*
X151757428Y-105322142D01*
X151805047Y-105226904D01*
X151805047Y-105131666D01*
X151757428Y-105036428D01*
X151709809Y-104988809D01*
X151614571Y-104941190D01*
X151424095Y-104893571D01*
X151328857Y-104845952D01*
X151281238Y-104798333D01*
X151233619Y-104703095D01*
X151233619Y-104607857D01*
X151281238Y-104512619D01*
X151328857Y-104465000D01*
X151424095Y-104417380D01*
X151662190Y-104417380D01*
X151805047Y-104465000D01*
X152566952Y-104893571D02*
X152709809Y-104941190D01*
X152757428Y-104988809D01*
X152805047Y-105084047D01*
X152805047Y-105226904D01*
X152757428Y-105322142D01*
X152709809Y-105369761D01*
X152614571Y-105417380D01*
X152233619Y-105417380D01*
X152233619Y-104417380D01*
X152566952Y-104417380D01*
X152662190Y-104465000D01*
X152709809Y-104512619D01*
X152757428Y-104607857D01*
X152757428Y-104703095D01*
X152709809Y-104798333D01*
X152662190Y-104845952D01*
X152566952Y-104893571D01*
X152233619Y-104893571D01*
X154566952Y-105322142D02*
X154519333Y-105369761D01*
X154376476Y-105417380D01*
X154281238Y-105417380D01*
X154138380Y-105369761D01*
X154043142Y-105274523D01*
X153995523Y-105179285D01*
X153947904Y-104988809D01*
X153947904Y-104845952D01*
X153995523Y-104655476D01*
X154043142Y-104560238D01*
X154138380Y-104465000D01*
X154281238Y-104417380D01*
X154376476Y-104417380D01*
X154519333Y-104465000D01*
X154566952Y-104512619D01*
X155138380Y-105417380D02*
X155043142Y-105369761D01*
X154995523Y-105322142D01*
X154947904Y-105226904D01*
X154947904Y-104941190D01*
X154995523Y-104845952D01*
X155043142Y-104798333D01*
X155138380Y-104750714D01*
X155281238Y-104750714D01*
X155376476Y-104798333D01*
X155424095Y-104845952D01*
X155471714Y-104941190D01*
X155471714Y-105226904D01*
X155424095Y-105322142D01*
X155376476Y-105369761D01*
X155281238Y-105417380D01*
X155138380Y-105417380D01*
X155900285Y-104750714D02*
X155900285Y-105417380D01*
X155900285Y-104845952D02*
X155947904Y-104798333D01*
X156043142Y-104750714D01*
X156186000Y-104750714D01*
X156281238Y-104798333D01*
X156328857Y-104893571D01*
X156328857Y-105417380D01*
X156662190Y-104750714D02*
X157043142Y-104750714D01*
X156805047Y-104417380D02*
X156805047Y-105274523D01*
X156852666Y-105369761D01*
X156947904Y-105417380D01*
X157043142Y-105417380D01*
X157376476Y-105417380D02*
X157376476Y-104750714D01*
X157376476Y-104941190D02*
X157424095Y-104845952D01*
X157471714Y-104798333D01*
X157566952Y-104750714D01*
X157662190Y-104750714D01*
X158138380Y-105417380D02*
X158043142Y-105369761D01*
X157995523Y-105322142D01*
X157947904Y-105226904D01*
X157947904Y-104941190D01*
X157995523Y-104845952D01*
X158043142Y-104798333D01*
X158138380Y-104750714D01*
X158281238Y-104750714D01*
X158376476Y-104798333D01*
X158424095Y-104845952D01*
X158471714Y-104941190D01*
X158471714Y-105226904D01*
X158424095Y-105322142D01*
X158376476Y-105369761D01*
X158281238Y-105417380D01*
X158138380Y-105417380D01*
X159043142Y-105417380D02*
X158947904Y-105369761D01*
X158900285Y-105274523D01*
X158900285Y-104417380D01*
D11*
%TO.C,FS0*%
X147260000Y-97730000D02*
X148590000Y-97730000D01*
X147260000Y-99060000D02*
X147260000Y-97730000D01*
X147260000Y-100330000D02*
X149920000Y-100330000D01*
X149920000Y-100330000D02*
X149920000Y-105470000D01*
X147260000Y-100330000D02*
X147260000Y-105470000D01*
X147260000Y-105470000D02*
X149920000Y-105470000D01*
%TO.C,FS1*%
X144720000Y-105470000D02*
X147380000Y-105470000D01*
X144720000Y-100330000D02*
X144720000Y-105470000D01*
X147380000Y-100330000D02*
X147380000Y-105470000D01*
X144720000Y-100330000D02*
X147380000Y-100330000D01*
X144720000Y-99060000D02*
X144720000Y-97730000D01*
X144720000Y-97730000D02*
X146050000Y-97730000D01*
%TO.C,FS2*%
X142180000Y-97730000D02*
X143510000Y-97730000D01*
X142180000Y-99060000D02*
X142180000Y-97730000D01*
X142180000Y-100330000D02*
X144840000Y-100330000D01*
X144840000Y-100330000D02*
X144840000Y-105470000D01*
X142180000Y-100330000D02*
X142180000Y-105470000D01*
X142180000Y-105470000D02*
X144840000Y-105470000D01*
%TO.C,FS3*%
X139640000Y-105470000D02*
X142300000Y-105470000D01*
X139640000Y-100330000D02*
X139640000Y-105470000D01*
X142300000Y-100330000D02*
X142300000Y-105470000D01*
X139640000Y-100330000D02*
X142300000Y-100330000D01*
X139640000Y-99060000D02*
X139640000Y-97730000D01*
X139640000Y-97730000D02*
X140970000Y-97730000D01*
%TO.C,R1*%
X137383733Y-101090000D02*
X137726267Y-101090000D01*
X137383733Y-102110000D02*
X137726267Y-102110000D01*
%TO.C,R99*%
X135830000Y-99120000D02*
X138490000Y-99120000D01*
X135830000Y-99060000D02*
X135830000Y-99120000D01*
X138490000Y-99060000D02*
X138490000Y-99120000D01*
X135830000Y-99060000D02*
X138490000Y-99060000D01*
X135830000Y-97790000D02*
X135830000Y-96460000D01*
X135830000Y-96460000D02*
X137160000Y-96460000D01*
%TO.C,FS0*%
D10*
X148518571Y-96809523D02*
X148518571Y-97142857D01*
X149042380Y-97142857D02*
X148042380Y-97142857D01*
X148042380Y-96666666D01*
X148994761Y-96333333D02*
X149042380Y-96190476D01*
X149042380Y-95952380D01*
X148994761Y-95857142D01*
X148947142Y-95809523D01*
X148851904Y-95761904D01*
X148756666Y-95761904D01*
X148661428Y-95809523D01*
X148613809Y-95857142D01*
X148566190Y-95952380D01*
X148518571Y-96142857D01*
X148470952Y-96238095D01*
X148423333Y-96285714D01*
X148328095Y-96333333D01*
X148232857Y-96333333D01*
X148137619Y-96285714D01*
X148090000Y-96238095D01*
X148042380Y-96142857D01*
X148042380Y-95904761D01*
X148090000Y-95761904D01*
X148042380Y-95142857D02*
X148042380Y-95047619D01*
X148090000Y-94952380D01*
X148137619Y-94904761D01*
X148232857Y-94857142D01*
X148423333Y-94809523D01*
X148661428Y-94809523D01*
X148851904Y-94857142D01*
X148947142Y-94904761D01*
X148994761Y-94952380D01*
X149042380Y-95047619D01*
X149042380Y-95142857D01*
X148994761Y-95238095D01*
X148947142Y-95285714D01*
X148851904Y-95333333D01*
X148661428Y-95380952D01*
X148423333Y-95380952D01*
X148232857Y-95333333D01*
X148137619Y-95285714D01*
X148090000Y-95238095D01*
X148042380Y-95142857D01*
%TO.C,FS1*%
X145978571Y-96809523D02*
X145978571Y-97142857D01*
X146502380Y-97142857D02*
X145502380Y-97142857D01*
X145502380Y-96666666D01*
X146454761Y-96333333D02*
X146502380Y-96190476D01*
X146502380Y-95952380D01*
X146454761Y-95857142D01*
X146407142Y-95809523D01*
X146311904Y-95761904D01*
X146216666Y-95761904D01*
X146121428Y-95809523D01*
X146073809Y-95857142D01*
X146026190Y-95952380D01*
X145978571Y-96142857D01*
X145930952Y-96238095D01*
X145883333Y-96285714D01*
X145788095Y-96333333D01*
X145692857Y-96333333D01*
X145597619Y-96285714D01*
X145550000Y-96238095D01*
X145502380Y-96142857D01*
X145502380Y-95904761D01*
X145550000Y-95761904D01*
X146502380Y-94809523D02*
X146502380Y-95380952D01*
X146502380Y-95095238D02*
X145502380Y-95095238D01*
X145645238Y-95190476D01*
X145740476Y-95285714D01*
X145788095Y-95380952D01*
%TO.C,FS2*%
X143438571Y-96809523D02*
X143438571Y-97142857D01*
X143962380Y-97142857D02*
X142962380Y-97142857D01*
X142962380Y-96666666D01*
X143914761Y-96333333D02*
X143962380Y-96190476D01*
X143962380Y-95952380D01*
X143914761Y-95857142D01*
X143867142Y-95809523D01*
X143771904Y-95761904D01*
X143676666Y-95761904D01*
X143581428Y-95809523D01*
X143533809Y-95857142D01*
X143486190Y-95952380D01*
X143438571Y-96142857D01*
X143390952Y-96238095D01*
X143343333Y-96285714D01*
X143248095Y-96333333D01*
X143152857Y-96333333D01*
X143057619Y-96285714D01*
X143010000Y-96238095D01*
X142962380Y-96142857D01*
X142962380Y-95904761D01*
X143010000Y-95761904D01*
X143057619Y-95380952D02*
X143010000Y-95333333D01*
X142962380Y-95238095D01*
X142962380Y-95000000D01*
X143010000Y-94904761D01*
X143057619Y-94857142D01*
X143152857Y-94809523D01*
X143248095Y-94809523D01*
X143390952Y-94857142D01*
X143962380Y-95428571D01*
X143962380Y-94809523D01*
%TO.C,FS3*%
X140898571Y-96809523D02*
X140898571Y-97142857D01*
X141422380Y-97142857D02*
X140422380Y-97142857D01*
X140422380Y-96666666D01*
X141374761Y-96333333D02*
X141422380Y-96190476D01*
X141422380Y-95952380D01*
X141374761Y-95857142D01*
X141327142Y-95809523D01*
X141231904Y-95761904D01*
X141136666Y-95761904D01*
X141041428Y-95809523D01*
X140993809Y-95857142D01*
X140946190Y-95952380D01*
X140898571Y-96142857D01*
X140850952Y-96238095D01*
X140803333Y-96285714D01*
X140708095Y-96333333D01*
X140612857Y-96333333D01*
X140517619Y-96285714D01*
X140470000Y-96238095D01*
X140422380Y-96142857D01*
X140422380Y-95904761D01*
X140470000Y-95761904D01*
X140422380Y-95428571D02*
X140422380Y-94809523D01*
X140803333Y-95142857D01*
X140803333Y-95000000D01*
X140850952Y-94904761D01*
X140898571Y-94857142D01*
X140993809Y-94809523D01*
X141231904Y-94809523D01*
X141327142Y-94857142D01*
X141374761Y-94904761D01*
X141422380Y-95000000D01*
X141422380Y-95285714D01*
X141374761Y-95380952D01*
X141327142Y-95428571D01*
%TO.C,R1*%
X137388333Y-103322380D02*
X137055000Y-102846190D01*
X136816904Y-103322380D02*
X136816904Y-102322380D01*
X137197857Y-102322380D01*
X137293095Y-102370000D01*
X137340714Y-102417619D01*
X137388333Y-102512857D01*
X137388333Y-102655714D01*
X137340714Y-102750952D01*
X137293095Y-102798571D01*
X137197857Y-102846190D01*
X136816904Y-102846190D01*
X138340714Y-103322380D02*
X137769285Y-103322380D01*
X138055000Y-103322380D02*
X138055000Y-102322380D01*
X137959761Y-102465238D01*
X137864523Y-102560476D01*
X137769285Y-102608095D01*
%TO.C,R99*%
X136517142Y-95912380D02*
X136183809Y-95436190D01*
X135945714Y-95912380D02*
X135945714Y-94912380D01*
X136326666Y-94912380D01*
X136421904Y-94960000D01*
X136469523Y-95007619D01*
X136517142Y-95102857D01*
X136517142Y-95245714D01*
X136469523Y-95340952D01*
X136421904Y-95388571D01*
X136326666Y-95436190D01*
X135945714Y-95436190D01*
X136993333Y-95912380D02*
X137183809Y-95912380D01*
X137279047Y-95864761D01*
X137326666Y-95817142D01*
X137421904Y-95674285D01*
X137469523Y-95483809D01*
X137469523Y-95102857D01*
X137421904Y-95007619D01*
X137374285Y-94960000D01*
X137279047Y-94912380D01*
X137088571Y-94912380D01*
X136993333Y-94960000D01*
X136945714Y-95007619D01*
X136898095Y-95102857D01*
X136898095Y-95340952D01*
X136945714Y-95436190D01*
X136993333Y-95483809D01*
X137088571Y-95531428D01*
X137279047Y-95531428D01*
X137374285Y-95483809D01*
X137421904Y-95436190D01*
X137469523Y-95340952D01*
X137945714Y-95912380D02*
X138136190Y-95912380D01*
X138231428Y-95864761D01*
X138279047Y-95817142D01*
X138374285Y-95674285D01*
X138421904Y-95483809D01*
X138421904Y-95102857D01*
X138374285Y-95007619D01*
X138326666Y-94960000D01*
X138231428Y-94912380D01*
X138040952Y-94912380D01*
X137945714Y-94960000D01*
X137898095Y-95007619D01*
X137850476Y-95102857D01*
X137850476Y-95340952D01*
X137898095Y-95436190D01*
X137945714Y-95483809D01*
X138040952Y-95531428D01*
X138231428Y-95531428D01*
X138326666Y-95483809D01*
X138374285Y-95436190D01*
X138421904Y-95340952D01*
%TD*%
M02*
