M48
; DRILL file {KiCad (5.1.6)-1} date 11/11/20 17:13:37
; FORMAT={-:-/ absolute / inch / decimal}
; #@! TF.CreationDate,2020-11-11T17:13:37-05:00
; #@! TF.GenerationSoftware,Kicad,Pcbnew,(5.1.6)-1
FMAT,2
INCH
T1C0.0394
%
G90
G05
T1
X5.85Y-4.0
X6.01Y-3.78
X6.21Y-3.78
X6.21Y-3.88
X6.21Y-3.98
X5.55Y-3.9
X5.55Y-4.0
X5.55Y-4.1
X5.75Y-3.9
X5.75Y-4.0
X5.75Y-4.1
X5.4Y-3.85
X5.85Y-3.9
X5.85Y-4.1
X6.01Y-3.88
X6.01Y-3.98
X5.65Y-3.9
X5.65Y-4.0
X5.65Y-4.1
X6.11Y-3.78
X6.11Y-3.88
X6.11Y-3.98
T0
M30
